<?xml version="1.0" encoding="utf-8"?>
<!-- Generator: Adobe Illustrator 25.4.1, SVG Export Plug-In . SVG Version: 6.00 Build 0)  -->
<svg version="1.1" id="Layer_1" xmlns="http://www.w3.org/2000/svg" xmlns:xlink="http://www.w3.org/1999/xlink" x="0px" y="0px"
	 viewBox="0 0 1200 117.78" style="enable-background:new 0 0 1200 117.78;" xml:space="preserve">
<style type="text/css">
	.st0{fill:none;stroke:#FFFFFF;}
</style>
<g>
	<path class="st0" d="M29.15,92.89c-0.09,1.81,0.02,3.25,0.34,4.34c0.32,1.08,0.88,1.94,1.69,2.57c0.81,0.63,1.94,1.08,3.39,1.35
		c1.44,0.27,3.34,0.5,5.69,0.68v3.25c-3.34-0.27-5.94-0.45-7.79-0.54c-1.85-0.09-3.68-0.14-5.49-0.14c-1.81,0-3.66,0.05-5.56,0.14
		c-1.9,0.09-4.61,0.27-8.13,0.54v-3.25c2.35-0.18,4.24-0.41,5.69-0.68c1.44-0.27,2.57-0.72,3.39-1.35c0.81-0.63,1.35-1.49,1.63-2.57
		c0.27-1.08,0.45-2.53,0.54-4.34l2.71-66.66c0.09-1.71,0.02-3.12-0.2-4.2c-0.23-1.08-0.72-1.94-1.49-2.57
		c-0.77-0.63-1.9-1.1-3.39-1.42c-1.49-0.32-3.5-0.56-6.03-0.75v-3.39c2.62,0.18,4.72,0.32,6.3,0.41c1.58,0.09,3.18,0.14,4.81,0.14
		c2.35,0,4.4-0.04,6.17-0.14c1.76-0.09,4-0.27,6.71-0.54l25.2,68.56L90.8,13.76c3.16,0.27,5.67,0.45,7.52,0.54
		c1.85,0.09,3.68,0.14,5.49,0.14c1.53,0,3.05-0.04,4.54-0.14c1.49-0.09,3.54-0.22,6.17-0.41v3.25c-2.35,0.18-4.27,0.41-5.76,0.68
		c-1.49,0.27-2.64,0.66-3.46,1.15c-0.81,0.5-1.33,1.15-1.56,1.96c-0.23,0.81-0.34,1.76-0.34,2.85l1.35,69.1
		c0,1.81,0.14,3.25,0.41,4.34s0.81,1.94,1.63,2.57c0.81,0.63,1.94,1.11,3.39,1.42c1.44,0.32,3.39,0.52,5.83,0.61v3.25
		c-1.9-0.18-3.59-0.34-5.08-0.47c-1.49-0.14-2.87-0.22-4.13-0.27c-1.27-0.04-2.53-0.09-3.79-0.14c-1.27-0.04-2.57-0.07-3.93-0.07
		c-2.89,0-5.51,0.07-7.86,0.2c-2.35,0.14-5.38,0.38-9.08,0.75v-3.25c2.26-0.09,4.13-0.29,5.62-0.61c1.49-0.32,2.64-0.79,3.46-1.42
		c0.81-0.63,1.35-1.49,1.63-2.57s0.41-2.53,0.41-4.34l-1.08-70.32L69.66,82.99c-1.27,3.25-2.44,6.46-3.52,9.62
		c-1.08,3.16-2.17,6.32-3.25,9.48h-2.03c-1.08-3.25-2.19-6.52-3.32-9.82c-1.13-3.3-2.33-6.57-3.59-9.82L31.86,22.29L29.15,92.89z"/>
	<path class="st0" d="M176.97,83.81c-0.9,7.05-3.46,12.53-7.66,16.46c-4.2,3.93-9.69,5.89-16.46,5.89c-4.25,0-8.06-0.77-11.45-2.3
		c-3.39-1.53-6.26-3.77-8.6-6.71c-2.35-2.93-4.13-6.46-5.35-10.57c-1.22-4.11-1.83-8.74-1.83-13.89s0.61-9.78,1.83-13.89
		c1.22-4.11,2.98-7.63,5.28-10.57c2.3-2.93,5.08-5.17,8.33-6.71c3.25-1.53,6.91-2.3,10.97-2.3c7.68,0,13.69,2.76,18.02,8.27
		c4.34,5.51,6.59,13.41,6.77,23.71H136.6c0,4.61,0.2,8.45,0.61,11.52c0.41,3.07,1.06,5.69,1.96,7.86
		c2.98,7.41,8.08,11.11,15.31,11.11c4.52,0,8.31-1.56,11.38-4.67c3.07-3.12,5.01-7.52,5.83-13.21H176.97z M166,66.33
		c-0.63-15.72-5.28-23.58-13.96-23.58c-8.76,0-13.82,7.86-15.18,23.58H166z"/>
	<path class="st0" d="M186.32,41.8c3.61-0.36,6.84-0.81,9.69-1.35c2.85-0.54,5.58-1.17,8.2-1.9c0.63,3.52,1.04,7.81,1.22,12.87
		c1.53-3.97,3.7-7.02,6.5-9.15c2.8-2.12,5.87-3.18,9.21-3.18c3.52,0,6.37,1.04,8.54,3.12c2.17,2.08,3.25,4.7,3.25,7.86
		c0,2.08-0.52,3.68-1.56,4.81c-1.04,1.13-2.42,1.69-4.13,1.69c-1.63,0-2.94-0.43-3.93-1.29c-1-0.86-1.49-1.92-1.49-3.18
		c0-0.63,0.14-1.58,0.41-2.85c0.09-0.36,0.14-0.77,0.14-1.22c0-0.99-0.29-1.78-0.88-2.37c-0.59-0.59-1.65-0.88-3.18-0.88
		c-3.43,0-6.21,1.94-8.33,5.83c-2.12,3.88-3.18,9.26-3.18,16.12v28.32c0,1.45,0.11,2.62,0.34,3.52c0.22,0.9,0.68,1.63,1.35,2.17
		c0.68,0.54,1.65,0.93,2.91,1.15c1.26,0.23,2.93,0.39,5.01,0.47v2.71c-3.52-0.36-6.35-0.59-8.47-0.68
		c-2.12-0.09-4.31-0.14-6.57-0.14c-1.17,0-2.28,0-3.32,0c-1.04,0-2.15,0.05-3.32,0.14c-1.17,0.09-2.46,0.18-3.86,0.27
		c-1.4,0.09-2.96,0.22-4.67,0.41v-2.71c2.08-0.09,3.75-0.25,5.01-0.47c1.26-0.22,2.26-0.61,2.98-1.15c0.72-0.54,1.2-1.26,1.42-2.17
		c0.22-0.9,0.34-2.08,0.34-3.52V52.91c0-1.9-0.09-3.41-0.27-4.54c-0.18-1.13-0.59-2.01-1.22-2.64c-0.63-0.63-1.6-1.06-2.91-1.29
		c-1.31-0.22-3.05-0.34-5.22-0.34V41.8z"/>
	<path class="st0" d="M285.91,60.23h-2.98c-0.54-2.35-1.04-4.2-1.49-5.56c-0.45-1.35-1.04-2.71-1.76-4.06
		c-1.27-2.44-3.07-4.36-5.42-5.76c-2.35-1.4-4.83-2.1-7.45-2.1c-4.88,0-8.72,2.57-11.52,7.72c-2.8,5.15-4.2,12.51-4.2,22.09
		c0,9.58,1.4,16.82,4.2,21.75c2.8,4.92,6.64,7.38,11.52,7.38c8.4,0,13.41-5.96,15.04-17.89h5.42c-0.81,7.32-3.03,12.87-6.64,16.67
		c-3.61,3.79-8.45,5.69-14.5,5.69c-4.06,0-7.77-0.81-11.11-2.44c-3.34-1.63-6.17-3.91-8.47-6.84c-2.3-2.93-4.09-6.46-5.35-10.57
		c-1.27-4.11-1.9-8.69-1.9-13.75c0-5.06,0.63-9.64,1.9-13.75c1.26-4.11,3.05-7.63,5.35-10.57c2.3-2.93,5.13-5.19,8.47-6.77
		c3.34-1.58,7.05-2.37,11.11-2.37c2.98,0,5.67,0.5,8.06,1.49c2.39,1,4.31,2.39,5.76,4.2l3.52-6.91h2.44V60.23z"/>
	<path class="st0" d="M349.59,83.81c-0.9,7.05-3.46,12.53-7.66,16.46c-4.2,3.93-9.69,5.89-16.46,5.89c-4.25,0-8.06-0.77-11.45-2.3
		c-3.39-1.53-6.26-3.77-8.6-6.71c-2.35-2.93-4.13-6.46-5.35-10.57c-1.22-4.11-1.83-8.74-1.83-13.89s0.61-9.78,1.83-13.89
		c1.22-4.11,2.98-7.63,5.28-10.57c2.3-2.93,5.08-5.17,8.33-6.71c3.25-1.53,6.91-2.3,10.97-2.3c7.68,0,13.69,2.76,18.02,8.27
		c4.34,5.51,6.59,13.41,6.77,23.71h-40.24c0,4.61,0.2,8.45,0.61,11.52c0.41,3.07,1.06,5.69,1.96,7.86
		c2.98,7.41,8.08,11.11,15.31,11.11c4.52,0,8.31-1.56,11.38-4.67c3.07-3.12,5.01-7.52,5.83-13.21H349.59z M338.61,66.33
		c-0.63-15.72-5.28-23.58-13.96-23.58c-8.76,0-13.82,7.86-15.18,23.58H338.61z"/>
	<path class="st0" d="M421.94,102.51c-4.25,0.54-7.63,1.06-10.16,1.56c-2.53,0.5-5.1,1.15-7.72,1.96c-0.45-1.9-0.81-3.73-1.08-5.49
		c-0.27-1.76-0.5-3.68-0.68-5.76c-1.54,3.52-3.77,6.26-6.71,8.2c-2.94,1.94-6.44,2.91-10.5,2.91c-3.71,0-7.07-0.75-10.09-2.24
		c-3.03-1.49-5.62-3.66-7.79-6.5c-2.17-2.85-3.86-6.32-5.08-10.43c-1.22-4.11-1.83-8.78-1.83-14.02c0-5.24,0.61-9.91,1.83-14.02
		c1.22-4.11,2.91-7.59,5.08-10.43s4.76-5.01,7.79-6.5c3.03-1.49,6.39-2.24,10.09-2.24c4.15,0,7.63,0.97,10.43,2.91
		c2.8,1.94,4.7,4.49,5.69,7.66v-23.3c0-1.71-0.09-3.12-0.27-4.2c-0.18-1.08-0.61-1.9-1.29-2.44c-0.68-0.54-1.65-0.9-2.91-1.08
		c-1.27-0.18-2.94-0.27-5.01-0.27v-2.44c3.34-0.27,6.84-0.72,10.5-1.35c3.66-0.63,6.93-1.35,9.82-2.17v78.18
		c0,1.99,0.09,3.57,0.27,4.74c0.18,1.17,0.61,2.08,1.29,2.71c0.68,0.63,1.67,1.06,2.98,1.29c1.31,0.23,3.09,0.39,5.35,0.47V102.51z
		 M401.35,72.7c0-9.57-1.35-16.87-4.06-21.88s-6.32-7.52-10.84-7.52c-4.52,0-8.11,2.51-10.77,7.52c-2.67,5.01-4,12.31-4,21.88
		c0,9.58,1.33,16.87,4,21.88c2.66,5.01,6.25,7.52,10.77,7.52c4.52,0,8.13-2.51,10.84-7.52S401.35,82.27,401.35,72.7z"/>
	<path class="st0" d="M481.15,83.81c-0.9,7.05-3.46,12.53-7.66,16.46c-4.2,3.93-9.69,5.89-16.46,5.89c-4.25,0-8.06-0.77-11.45-2.3
		c-3.39-1.53-6.26-3.77-8.6-6.71c-2.35-2.93-4.13-6.46-5.35-10.57c-1.22-4.11-1.83-8.74-1.83-13.89s0.61-9.78,1.83-13.89
		c1.22-4.11,2.98-7.63,5.28-10.57c2.3-2.93,5.08-5.17,8.33-6.71c3.25-1.53,6.91-2.3,10.97-2.3c7.68,0,13.69,2.76,18.02,8.27
		c4.34,5.51,6.59,13.41,6.77,23.71h-40.24c0,4.61,0.2,8.45,0.61,11.52c0.41,3.07,1.06,5.69,1.96,7.86
		c2.98,7.41,8.08,11.11,15.31,11.11c4.52,0,8.31-1.56,11.38-4.67c3.07-3.12,5.01-7.52,5.83-13.21H481.15z M470.17,66.33
		c-0.63-15.72-5.28-23.58-13.96-23.58c-8.76,0-13.82,7.86-15.18,23.58H470.17z"/>
	<path class="st0" d="M493.61,83.67h2.98c0.45,2.17,0.88,3.93,1.29,5.28s0.97,2.76,1.69,4.2c1.35,2.62,3.34,4.72,5.96,6.3
		c2.62,1.58,5.51,2.37,8.67,2.37c4.06,0,7.41-1.15,10.03-3.46c2.62-2.3,3.93-5.22,3.93-8.74c0-2.08-0.54-3.86-1.63-5.35
		c-1.08-1.49-3.07-2.96-5.96-4.4l-13.14-6.1c-4.52-2.08-7.79-4.42-9.82-7.05c-2.03-2.62-3.05-5.96-3.05-10.03
		c0-5.24,1.83-9.42,5.49-12.53c3.66-3.12,8.6-4.67,14.84-4.67c2.62,0,4.97,0.34,7.05,1.02c2.08,0.68,4.34,1.78,6.77,3.32l2.3-5.56
		h2.3v21h-2.98c-1.17-10.66-5.92-15.99-14.23-15.99c-3.89,0-6.98,1.04-9.28,3.12c-2.3,2.08-3.46,4.7-3.46,7.86
		c0,2.17,0.54,4.02,1.63,5.56c1.08,1.54,3.07,2.94,5.96,4.2l12.47,5.56c5.15,2.26,8.74,4.65,10.77,7.18
		c2.03,2.53,3.05,5.78,3.05,9.76c0,2.71-0.5,5.26-1.49,7.66c-1,2.39-2.44,4.45-4.34,6.17c-1.9,1.72-4.18,3.07-6.84,4.06
		c-2.67,0.99-5.67,1.49-9.01,1.49c-3.16,0-6.03-0.45-8.6-1.35c-2.57-0.9-5.17-2.3-7.79-4.2l-3.25,5.96h-2.3V83.67z"/>
	<path class="st0" d="M544.15,65.38h34.82v6.1h-34.82V65.38z"/>
	<path class="st0" d="M602.28,78.52l-4.47,12.74c-1.08,3.25-1.63,5.38-1.63,6.37c0,1.35,0.65,2.35,1.96,2.98
		c1.31,0.63,3.64,1.04,6.98,1.22v3.25c-2.8-0.27-5.1-0.45-6.91-0.54c-1.81-0.09-3.79-0.14-5.96-0.14c-2.17,0-4.16,0.05-5.96,0.14
		c-1.81,0.09-4.11,0.27-6.91,0.54v-3.25c2.08-0.09,3.77-0.29,5.08-0.61c1.31-0.32,2.44-0.81,3.39-1.49c0.95-0.68,1.76-1.6,2.44-2.78
		c0.68-1.17,1.38-2.75,2.1-4.74l30.89-80.75l27.91,82.24c0.54,1.54,1.08,2.78,1.63,3.73c0.54,0.95,1.29,1.72,2.24,2.3
		c0.95,0.59,2.1,1.04,3.46,1.35c1.35,0.32,3.12,0.57,5.28,0.75v3.25c-3.79-0.45-6.87-0.75-9.21-0.88c-2.35-0.14-4.79-0.2-7.32-0.2
		c-2.53,0-4.97,0.07-7.32,0.2c-2.35,0.14-5.42,0.43-9.21,0.88v-3.25c3.16-0.27,5.4-0.7,6.71-1.29c1.31-0.59,1.96-1.51,1.96-2.78
		c0-1.44-0.27-2.98-0.81-4.61l-4.61-14.63H602.28z M632.63,74.32l-13.28-41.46l-15.45,41.46H632.63z"/>
	<path class="st0" d="M685.34,92.89c-0.09,1.81,0.02,3.25,0.34,4.34c0.32,1.08,0.88,1.94,1.69,2.57c0.81,0.63,1.94,1.08,3.39,1.35
		c1.44,0.27,3.34,0.5,5.69,0.68v3.25c-3.34-0.27-5.94-0.45-7.79-0.54c-1.85-0.09-3.68-0.14-5.49-0.14c-1.81,0-3.66,0.05-5.55,0.14
		c-1.9,0.09-4.61,0.27-8.13,0.54v-3.25c2.35-0.18,4.24-0.41,5.69-0.68c1.44-0.27,2.57-0.72,3.39-1.35c0.81-0.63,1.35-1.49,1.63-2.57
		c0.27-1.08,0.45-2.53,0.54-4.34l2.71-66.66c0.09-1.71,0.02-3.12-0.2-4.2c-0.23-1.08-0.72-1.94-1.49-2.57
		c-0.77-0.63-1.9-1.1-3.39-1.42c-1.49-0.32-3.5-0.56-6.03-0.75v-3.39c2.62,0.18,4.72,0.32,6.3,0.41c1.58,0.09,3.18,0.14,4.81,0.14
		c2.35,0,4.4-0.04,6.17-0.14c1.76-0.09,4-0.27,6.71-0.54l25.2,68.56l25.47-68.56c3.16,0.27,5.67,0.45,7.52,0.54
		c1.85,0.09,3.68,0.14,5.49,0.14c1.54,0,3.05-0.04,4.54-0.14c1.49-0.09,3.54-0.22,6.17-0.41v3.25c-2.35,0.18-4.27,0.41-5.76,0.68
		s-2.64,0.66-3.46,1.15c-0.81,0.5-1.33,1.15-1.56,1.96c-0.23,0.81-0.34,1.76-0.34,2.85l1.35,69.1c0,1.81,0.14,3.25,0.41,4.34
		c0.27,1.08,0.81,1.94,1.63,2.57c0.81,0.63,1.94,1.11,3.39,1.42c1.44,0.32,3.39,0.52,5.83,0.61v3.25c-1.9-0.18-3.59-0.34-5.08-0.47
		c-1.49-0.14-2.87-0.22-4.13-0.27c-1.27-0.04-2.53-0.09-3.79-0.14c-1.27-0.04-2.57-0.07-3.93-0.07c-2.89,0-5.51,0.07-7.86,0.2
		c-2.35,0.14-5.38,0.38-9.08,0.75v-3.25c2.26-0.09,4.13-0.29,5.62-0.61c1.49-0.32,2.64-0.79,3.46-1.42
		c0.81-0.63,1.35-1.49,1.62-2.57c0.27-1.08,0.41-2.53,0.41-4.34l-1.08-70.32l-22.49,60.43c-1.27,3.25-2.44,6.46-3.52,9.62
		c-1.08,3.16-2.17,6.32-3.25,9.48h-2.03c-1.08-3.25-2.19-6.52-3.32-9.82c-1.13-3.3-2.33-6.57-3.59-9.82l-22.09-60.16L685.34,92.89z"
		/>
	<path class="st0" d="M849.01,39.5h-3.12c-0.9-2.98-1.69-5.31-2.37-6.98c-0.68-1.67-1.56-3.41-2.64-5.22
		c-2.08-3.34-4.83-5.94-8.27-7.79c-3.43-1.85-7.18-2.78-11.25-2.78c-4.61,0-8.56,1.04-11.86,3.12c-3.3,2.08-6.01,4.99-8.13,8.74
		c-2.12,3.75-3.71,8.2-4.74,13.35c-1.04,5.15-1.56,10.84-1.56,17.07c0,6.23,0.52,11.97,1.56,17.21c1.04,5.24,2.62,9.8,4.74,13.68
		c2.12,3.89,4.81,6.91,8.06,9.08c3.25,2.17,7.13,3.25,11.65,3.25c3.43,0,6.68-0.43,9.76-1.29c3.07-0.86,5.87-2.14,8.4-3.86v-22.9
		c0-1.26-0.14-2.3-0.41-3.12c-0.27-0.81-0.79-1.47-1.56-1.96c-0.77-0.5-1.83-0.86-3.18-1.08c-1.36-0.22-3.12-0.43-5.28-0.61v-3.25
		c3.52,0.36,6.37,0.59,8.54,0.68c2.17,0.09,4.42,0.14,6.78,0.14c2.35,0,4.63-0.04,6.84-0.14c2.21-0.09,5.08-0.32,8.6-0.68v3.25
		c-2.17,0.18-3.91,0.41-5.22,0.68c-1.31,0.27-2.28,0.63-2.91,1.08c-0.63,0.45-1.04,1.08-1.22,1.9c-0.18,0.81-0.27,1.85-0.27,3.12
		v22.22c-4.34,3.16-9.1,5.58-14.29,7.25c-5.2,1.67-10.5,2.51-15.92,2.51c-5.51,0-10.52-1.11-15.04-3.32
		c-4.52-2.21-8.4-5.35-11.65-9.42c-3.25-4.06-5.76-9.01-7.52-14.84c-1.76-5.83-2.64-12.35-2.64-19.58c0-7.23,0.86-13.69,2.57-19.38
		c1.71-5.69,4.18-10.52,7.38-14.5c3.21-3.97,7.09-7.02,11.65-9.15c4.56-2.12,9.64-3.18,15.24-3.18c4.33,0,8.15,0.59,11.45,1.76
		c3.3,1.18,6.62,3.16,9.96,5.96l5.42-7.86h2.44V39.5z"/>
	<path class="st0" d="M968.92,39.5h-3.12c-0.9-2.98-1.69-5.31-2.37-6.98c-0.68-1.67-1.56-3.41-2.64-5.22
		c-2.08-3.34-4.83-5.94-8.27-7.79c-3.43-1.85-7.18-2.78-11.25-2.78c-4.61,0-8.56,1.04-11.86,3.12c-3.3,2.08-6.01,4.99-8.13,8.74
		c-2.12,3.75-3.71,8.2-4.74,13.35c-1.04,5.15-1.56,10.84-1.56,17.07c0,6.23,0.52,11.97,1.56,17.21c1.04,5.24,2.62,9.8,4.74,13.68
		c2.12,3.89,4.81,6.91,8.06,9.08c3.25,2.17,7.13,3.25,11.65,3.25c3.43,0,6.68-0.43,9.76-1.29c3.07-0.86,5.87-2.14,8.4-3.86v-22.9
		c0-1.26-0.14-2.3-0.41-3.12c-0.27-0.81-0.79-1.47-1.56-1.96c-0.77-0.5-1.83-0.86-3.18-1.08c-1.36-0.22-3.12-0.43-5.28-0.61v-3.25
		c3.52,0.36,6.37,0.59,8.54,0.68c2.17,0.09,4.42,0.14,6.78,0.14c2.35,0,4.63-0.04,6.84-0.14c2.21-0.09,5.08-0.32,8.6-0.68v3.25
		c-2.17,0.18-3.91,0.41-5.22,0.68c-1.31,0.27-2.28,0.63-2.91,1.08c-0.63,0.45-1.04,1.08-1.22,1.9c-0.18,0.81-0.27,1.85-0.27,3.12
		v22.22c-4.34,3.16-9.1,5.58-14.29,7.25c-5.2,1.67-10.5,2.51-15.92,2.51c-5.51,0-10.52-1.11-15.04-3.32
		c-4.52-2.21-8.4-5.35-11.65-9.42c-3.25-4.06-5.76-9.01-7.52-14.84c-1.76-5.83-2.64-12.35-2.64-19.58c0-7.23,0.86-13.69,2.57-19.38
		c1.71-5.69,4.18-10.52,7.38-14.5c3.21-3.97,7.09-7.02,11.65-9.15c4.56-2.12,9.64-3.18,15.24-3.18c4.33,0,8.15,0.59,11.45,1.76
		c3.3,1.18,6.62,3.16,9.96,5.96l5.42-7.86h2.44V39.5z"/>
	<path class="st0" d="M1072.85,10.78c-2.89,2.62-5.74,5.44-8.54,8.47c-2.8,3.03-5.44,6.05-7.93,9.08c-2.49,3.03-4.79,6.01-6.91,8.94
		c-2.12,2.94-3.86,5.67-5.22,8.2c2.08-0.72,3.77-1.2,5.08-1.42c1.31-0.22,2.78-0.34,4.4-0.34c3.79,0,7.25,0.75,10.37,2.24
		c3.12,1.49,5.83,3.59,8.13,6.3c2.3,2.71,4.09,5.94,5.35,9.69c1.26,3.75,1.9,7.84,1.9,12.26c0,4.61-0.7,8.85-2.1,12.74
		c-1.4,3.88-3.32,7.23-5.76,10.03c-2.44,2.8-5.35,4.99-8.74,6.57c-3.39,1.58-7.11,2.37-11.18,2.37c-4.16,0-7.95-0.77-11.38-2.3
		c-3.43-1.53-6.39-3.68-8.88-6.44c-2.49-2.75-4.4-6.07-5.76-9.96c-1.35-3.88-2.03-8.13-2.03-12.74c0-7.13,1.74-14.18,5.22-21.14
		c3.48-6.95,9.1-14.63,16.87-23.03c3.16-3.43,6.48-6.82,9.96-10.16c3.48-3.34,6.89-6.46,10.23-9.35H1072.85z M1051.71,48.17
		c-5.33,0-9.37,2.24-12.13,6.71c-2.76,4.47-4.13,11-4.13,19.58c0,9.03,1.33,15.88,4,20.53c2.66,4.65,6.66,6.98,11.99,6.98
		c5.24,0,9.21-2.3,11.92-6.91c2.71-4.61,4.07-11.29,4.07-20.05c0-8.76-1.33-15.42-4-19.98
		C1060.76,50.45,1056.86,48.17,1051.71,48.17z"/>
	<path class="st0" d="M1099.54,79.61c0.54,6.77,2.3,11.7,5.28,14.77c2.98,3.07,7.41,4.61,13.28,4.61c5.96,0,10.68-1.76,14.16-5.28
		c3.48-3.52,5.22-8.31,5.22-14.36c0-4.52-0.9-8.31-2.71-11.38c-1.81-3.07-4.43-5.24-7.86-6.5c-1.27-0.45-3.09-0.83-5.49-1.15
		c-2.39-0.32-4.54-0.47-6.44-0.47h-1.63v-4.74h1.63c6.05,0,10.75-1.51,14.09-4.54c3.34-3.03,5.01-7.34,5.01-12.94
		c0-4.88-1.31-8.69-3.93-11.45c-2.62-2.75-6.23-4.13-10.84-4.13c-4.97,0-8.9,1.35-11.79,4.06c-2.89,2.71-4.97,6.91-6.23,12.6h-4.07
		c1.63-15.72,9.89-23.58,24.8-23.58c3.52,0,6.71,0.52,9.55,1.56c2.85,1.04,5.28,2.49,7.32,4.34c2.03,1.85,3.61,4.09,4.74,6.71
		c1.13,2.62,1.69,5.51,1.69,8.67c0,10.21-5.56,16.94-16.67,20.19c2.71,0.63,4.92,1.29,6.64,1.96c1.71,0.68,3.39,1.6,5.01,2.78
		c2.89,1.99,5.08,4.56,6.57,7.72c1.49,3.16,2.24,6.64,2.24,10.43c0,3.79-0.72,7.3-2.17,10.5c-1.45,3.21-3.41,6.01-5.89,8.4
		c-2.49,2.39-5.47,4.25-8.94,5.56c-3.48,1.31-7.25,1.96-11.31,1.96c-8.22,0-14.52-2.21-18.9-6.64c-4.38-4.42-6.71-10.97-6.98-19.65
		H1099.54z"/>
	<path class="st0" d="M1182.05,97.9c0,2.26-0.75,4.16-2.24,5.69c-1.49,1.54-3.41,2.3-5.76,2.3c-2.35,0-4.27-0.77-5.76-2.3
		c-1.49-1.53-2.24-3.43-2.24-5.69c0-2.26,0.75-4.15,2.24-5.69c1.49-1.54,3.41-2.3,5.76-2.3c2.35,0,4.27,0.77,5.76,2.3
		C1181.31,93.75,1182.05,95.64,1182.05,97.9z"/>
</g>
<g>
</g>
<g>
</g>
<g>
</g>
<g>
</g>
<g>
</g>
<g>
</g>
<g>
</g>
<g>
</g>
<g>
</g>
<g>
</g>
<g>
</g>
<g>
</g>
<g>
</g>
<g>
</g>
<g>
</g>
</svg>
